<svg width="16" height="16" viewBox="0 0 16 16" fill="none" xmlns="http://www.w3.org/2000/svg">
<path d="M9.414 7.99988L15.207 2.20687C15.597 1.81687 15.597 1.18388 15.207 0.792875C14.817 0.401875 14.184 0.402875 13.793 0.792875L8 6.58588L2.207 0.792875C1.817 0.402875 1.184 0.402875 0.792997 0.792875C0.401997 1.18288 0.402997 1.81587 0.792997 2.20687L6.586 7.99988L0.792997 13.7929C0.402997 14.1829 0.402997 14.8159 0.792997 15.2069C0.987997 15.4019 1.243 15.4999 1.5 15.4999C1.757 15.4999 2.012 15.4019 2.207 15.2069L8 9.41387L13.793 15.2069C13.988 15.4019 14.243 15.4999 14.5 15.4999C14.757 15.4999 15.012 15.4019 15.207 15.2069C15.597 14.8169 15.597 14.1839 15.207 13.7929L9.414 7.99988Z" fill="white"/>
</svg>
